<?xml version="1.0" encoding="iso-8859-1"?>
<!-- Generator: Adobe Illustrator 18.0.0, SVG Export Plug-In . SVG Version: 6.00 Build 0)  -->
<!DOCTYPE svg PUBLIC "-//W3C//DTD SVG 1.1//EN" "http://www.w3.org/Graphics/SVG/1.1/DTD/svg11.dtd">
<svg version="1.1" id="Capa_1" xmlns="http://www.w3.org/2000/svg" xmlns:xlink="http://www.w3.org/1999/xlink" x="0px" y="0px"
	 viewBox="0 0 297 297" style="enable-background:new 0 0 297 297;" xml:space="preserve">
<g>
	<path d="M200.506,270.09c1.131-0.565,2.36-0.848,3.59-0.848c1.23,0,2.459,0.282,3.59,0.848l11.691,5.846
		c2.545,1.272,5.539-0.578,5.539-3.423v-54.757c-6.445,2.576-13.467,4.009-20.82,4.009c-7.354,0-14.375-1.432-20.82-4.009v54.757
		c0,2.845,2.994,4.695,5.539,3.423L200.506,270.09z"/>
	<path d="M204.096,125.258c-22.181,0-40.226,18.045-40.226,40.226s18.045,40.226,40.226,40.226
		c22.181,0,40.226-18.045,40.226-40.226S226.277,125.258,204.096,125.258z"/>
	<path d="M286.966,20.655H10.034C4.493,20.655,0,25.148,0,30.689v207.699c0,5.541,4.493,10.034,10.034,10.034h157.188v-40.475
		c-11.876-10.326-19.406-25.527-19.406-42.464c0-31.033,25.247-56.28,56.28-56.28s56.28,25.247,56.28,56.28
		c0,16.936-7.53,32.137-19.406,42.464v40.475h45.996c5.541,0,10.034-4.493,10.034-10.034V30.689
		C297,25.148,292.507,20.655,286.966,20.655z M96.575,194.491H44.65c-4.433,0-8.027-3.594-8.027-8.027s3.594-8.027,8.027-8.027
		h51.925c4.433,0,8.027,3.594,8.027,8.027S101.008,194.491,96.575,194.491z M113.883,142.566H44.65
		c-4.433,0-8.027-3.594-8.027-8.027c0-4.433,3.594-8.027,8.027-8.027h69.233c4.433,0,8.027,3.594,8.027,8.027
		C121.91,138.972,118.316,142.566,113.883,142.566z M165.808,90.641H44.65c-4.433,0-8.027-3.594-8.027-8.027
		s3.594-8.027,8.027-8.027h121.158c4.433,0,8.027,3.594,8.027,8.027S170.241,90.641,165.808,90.641z"/>
</g>
<g>
</g>
<g>
</g>
<g>
</g>
<g>
</g>
<g>
</g>
<g>
</g>
<g>
</g>
<g>
</g>
<g>
</g>
<g>
</g>
<g>
</g>
<g>
</g>
<g>
</g>
<g>
</g>
<g>
</g>
</svg>
